<?xml version="1.0" encoding="utf-8"?>
<!-- Generator: Adobe Illustrator 25.3.1, SVG Export Plug-In . SVG Version: 6.00 Build 0)  -->
<svg version="1.1" id="Layer_1" xmlns="http://www.w3.org/2000/svg" xmlns:xlink="http://www.w3.org/1999/xlink" x="0px" y="0px"
	 viewBox="0 0 56 56" style="enable-background:new 0 0 56 56;" xml:space="preserve">
<desc>Created with Sketch.</desc>
<g id="Black-Logo-Square">
	<path id="_xF8FF_" d="M28.7,12.9c2.5,0,5.5-1.7,7.4-4c1.7-2.1,2.9-4.9,2.9-7.8c0-0.4,0-0.8-0.1-1.1c-2.7,0.1-6,1.9-8,4.3
		c-1.6,1.8-3,4.7-3,7.6c0,0.4,0.1,0.9,0.1,1C28.1,12.9,28.4,12.9,28.7,12.9z M20,56c3.4,0,4.8-2.3,9-2.3c4.2,0,5.2,2.2,8.9,2.2
		c3.7,0,6.1-3.5,8.4-6.9c2.6-3.9,3.7-7.8,3.7-7.9c-0.2-0.1-7.3-3-7.3-11.3c0-7.2,5.5-10.4,5.8-10.7c-3.7-5.4-9.2-5.6-10.7-5.6
		c-4.1,0-7.5,2.6-9.6,2.6c-2.3,0-5.3-2.4-8.8-2.4c-6.8,0-13.6,5.8-13.6,16.7c0,6.8,2.6,13.9,5.7,18.5C14.3,52.8,16.6,56,20,56z"/>
</g>
</svg>
