<svg id="Layer_1" data-name="Layer 1" xmlns="http://www.w3.org/2000/svg" viewBox="0 0 486.74 494.86"><path d="M467.17,274.07a234.25,234.25,0,0,1,56.41-73.65c39-34.51,84.57-55.38,136.33-61,71.92-7.87,136.2,10.72,191.37,58.52,3.5,3,4.11,4.63.43,8.24-21.46,21-42.62,42.21-63.88,63.37-1.76,1.76-2.93,3.67-5.92.91-48.79-45-128.48-46.77-182.76-3.14-23.19,18.64-39.52,42.08-49.48,70-1.53-1-3.13-1.88-4.57-3Q506.12,304.22,467.17,274.07Z" transform="translate(-440.58 -137.62)" style="fill:#e84135"/><path d="M549.56,432.64c10.83,30.13,28.69,55.1,54.7,73.95,31.39,22.73,66.52,30.91,104.87,26.75a152.59,152.59,0,0,0,65-22.47c10.9,8.45,21.78,16.93,32.71,25.34q23.49,18.09,47.06,36.08c-16.43,15.92-35.39,28.12-56.1,37.59-42,19.19-86.26,25.74-132,21.24-72-7.09-130.18-39.75-174.73-96.65A194.27,194.27,0,0,1,467.2,496c.27-.19.56-.35.83-.55Z" transform="translate(-440.58 -137.62)" style="fill:#34a753"/><path d="M853.85,572.29q-23.54-18-47.06-36.08c-10.93-8.41-21.81-16.89-32.71-25.34,21.27-15,36.94-34.37,45.21-59.3,1.41-4.25,2.37-8.66,3.65-13,1.06-3.53.32-4.75-3.78-4.71-26.83.2-53.66.1-80.49.1-15.16,0-30.33-.09-45.49.07-3.28,0-4.2-.92-4.19-4.19q.18-43.49,0-87c0-3.8,1.52-4.26,4.71-4.26q112.23.11,224.47-.08c5,0,5.2,2.67,5.71,6a302.36,302.36,0,0,1,3.37,53.27c-1,47.58-12.43,92.17-38.09,132.63C879.29,546,867.8,560.18,853.85,572.29Z" transform="translate(-440.58 -137.62)" style="fill:#4284f3"/><path d="M549.56,432.64,468,495.44c-.27.2-.56.36-.83.55a218.94,218.94,0,0,1-21.76-62.37c-10.55-54.51-4-106.91,20.23-157,.44-.89,1-1.72,1.5-2.58q39,30.15,77.93,60.26c1.44,1.11,3,2,4.57,3C539.24,369.08,539.46,400.85,549.56,432.64Z" transform="translate(-440.58 -137.62)" style="fill:#f9ba08"/></svg>