<svg id="Layer_1" data-name="Layer 1" xmlns="http://www.w3.org/2000/svg" viewBox="0 0 414.95 295.95"><path d="M890.93,508a188.31,188.31,0,0,1-75.31-22.42,185.42,185.42,0,0,1-41-30.69,167.67,167.67,0,0,1-29-37.88c-4.12-7.39-1.56-15.51,6.21-19.35,8-4,16.22-7.69,24.44-11.31,7.1-3.13,13.52-1,17.58,5.64,20.76,34,51.34,53.45,90.07,60.77a45,45,0,0,0,7,.26Z" transform="translate(-476.05 -212)" style="fill:#b6cafe"/><path d="M890.93,239.06c-9.32,13.58-19.24,26.64-31.37,37.92a183.26,183.26,0,0,1-89.16,46c-3.57.74-7.17,1.32-10.77,1.88-8.62,1.35-15.31-4.43-15.73-13.18s-1.14-17.53-1.82-26.28a13.52,13.52,0,0,1,11.13-14.35c17.9-3,34.74-8.7,50-18.66,16.17-10.56,30.14-23.29,39.71-40.34,15,0,30,.07,45-.07,2.5,0,3.12.56,3.07,3.07C890.81,223.06,890.93,231.06,890.93,239.06Z" transform="translate(-476.05 -212)" style="fill:#b6cafe"/><path d="M476.05,448c29.82-.36,57-8.63,80.87-26.88a126.4,126.4,0,0,0,20.16-19.28c5.95-7.11,12.44-8,20.16-2.88,6.91,4.62,13.87,9.18,20.67,14,8,5.64,9.12,13.39,2.91,21Q575,489.69,503.4,500.12A168,168,0,0,1,476.05,502Z" transform="translate(-476.05 -212)" style="fill:#fe6a6a"/><path d="M585,212.07c10.39,10.56,20.36,21.47,28.42,34a183,183,0,0,1,24.79,57.42c2,8.69-2.37,15.74-11.14,17.27q-13.51,2.37-27.11,4.15c-7.34,1-12.92-3.21-15-10.95a126.34,126.34,0,0,0-34.36-59.29c-19.61-19.15-43.1-30.87-70.14-35.41a37,37,0,0,0-4.48-.19v-7Z" transform="translate(-476.05 -212)" style="fill:#fe6a6a"/></svg>