<svg id="Layer_1" data-name="Layer 1" xmlns="http://www.w3.org/2000/svg" viewBox="0 0 196.46 230.79"><path d="M1039.07,611.88l15.5,15-.55,1.17h-27c-6.48,1-11.31-1.49-15-6.76a33.7,33.7,0,0,0-4.12-4.16c-15.14-17.3-32.14-32.83-47.47-49.94-2-2.19-2.94-.86-4.23.67-16.48,19.66-34.64,37.8-51.43,57.18-1.32,1.52-2.48,3.17-4.82,3H867.07l-.89-1.25,10.73-10c2.37-2.32,4.77-4.62,7.1-7q26.91-27.12,53.78-54.26c1.3-1.32,3.87-2.31,1.16-5C925.22,536.8,911.64,522.87,898,509l-29.1-30c12.38,0,23.77,0,35.16,0,2.24,0,3.09,1.76,4.28,3q13.47,14.39,26.87,28.84a42.75,42.75,0,0,0,7.87,8.31l5.31,6c3.42,4,6.9,8.07,10.26,12.18,1.48,1.81,2.65,2.2,4.28.12,3.48-4.44,7.1-8.78,10.66-13.16l1.59-2.11,3.84-3.9a44.37,44.37,0,0,0,8-8.24q13.69-14.21,27.38-28.4c1.12-1.16,2-2.63,4-2.62,11.25,0,22.49,0,33.07,0q-19.77,20.4-39.74,41c-11.06,9.28-20.67,20.08-31.26,29.85-2,1.82-.67,2.73.52,3.92l48.27,48.18Z" transform="translate(-862.83 -425.46)" style="fill:#fe0606"/><path d="M900,628.11c2.34.15,3.5-1.5,4.82-3,16.79-19.38,35-37.52,51.43-57.18,1.29-1.53,2.27-2.86,4.23-.67,15.33,17.11,32.33,32.64,47.47,49.94a6.8,6.8,0,0,1-3.23,3,167.24,167.24,0,0,1-22.07,8.92,131.49,131.49,0,0,1-28.15,5.32,184.93,184.93,0,0,1-27.75.11c-8-.45-15.79-2.86-23.86-2.33Z" transform="translate(-862.83 -425.46)" style="fill:#f5a2b3"/><path d="M898,509c13.63,13.87,27.21,27.8,40.94,41.57,2.71,2.72.14,3.71-1.16,5Q910.94,582.78,884,609.86c-2.33,2.35-4.73,4.65-7.1,7-9.93-10.38-9.6-24.61-13.71-37.15-1.58-4.8,2.07-9.81,7.34-10.6,7.12-1.05,11.14-3.87,12.16-11.64.62-4.74,5.19-9,5.5-13.7.28-4.39-4.42-8.15-5.74-12.79a57.09,57.09,0,0,1-2.59-15.18c0-2.43.86-3.34,3.18-4.1C888,510.08,893.2,510.81,898,509Zm-9.65,28.31c-1.17-8.13-.41-15.83,3.75-23,.44-.76.91-1.65-.17-2.05-2.54-.93-4.89.24-7.25,1-2,.63-2.82,2-2.71,4.16C882.36,524.61,885.05,531,888.36,537.31Zm20.47,31.89c2.72-.3,4.77-1.9,4.79-5a5,5,0,0,0-10.07-.19C903.48,567.09,905.35,568.86,908.83,569.2ZM866,582.91c2.28-6.46,6.77-9.48,10.35-13.25C867.08,572.61,864.75,575.32,866,582.91Z" transform="translate(-862.83 -425.46)" style="fill:#f5a2b3"/><path d="M1029.23,601.92,981,553.74c-1.19-1.19-2.49-2.1-.52-3.92,10.59-9.77,20.2-20.57,31.26-29.85a58.76,58.76,0,0,1,28,30.32c3.11,7.37,4,7.07,9.75,1.83a9.15,9.15,0,0,0,1.71-1.81c1.37-2.25,2.92-4.34,5.92-3.09s2.18,4,1.79,6.14c-1.67,8.84-3.67,17.52-11.69,23.33-2.76,2-.48,5.55-1.2,8.29A198.93,198.93,0,0,1,1029.23,601.92Z" transform="translate(-862.83 -425.46)" style="fill:#f5a2b3"/><path d="M902.85,632.17c8.07-.53,15.86,1.88,23.86,2.33a184.93,184.93,0,0,0,27.75-.11,131.49,131.49,0,0,0,28.15-5.32,167.24,167.24,0,0,0,22.07-8.92,6.8,6.8,0,0,0,3.23-3,33.7,33.7,0,0,1,4.12,4.16c3.71,5.27,8.54,7.78,15,6.76-1.3,7.86-2.78,15.7-3.8,23.59-.45,3.45-2,4.63-5.19,4.49-2.33-.1-4.66,0-7,0-9.1,0-9.28,0-11-8.73-.71-3.53-2.62-1.78-3.94-1.28a95.38,95.38,0,0,1-36.18,5.92,87.41,87.41,0,0,1-26.9-4.64c-3.3-1.13-4.88-.43-4.78,2.81.17,5.07-2.43,6.26-6.85,6a81.6,81.6,0,0,0-10.49,0c-3.55.21-5.3-1.41-5.72-4.75C904.39,645,903.63,638.6,902.85,632.17Z" transform="translate(-862.83 -425.46)" style="fill:#f496a8"/><path d="M962.64,498.07A36.31,36.31,0,1,1,999,461.75,36.35,36.35,0,0,1,962.64,498.07ZM938,480q12.4,16.19,32.34,11.95c12.89-2.73,25-18.92,23.62-31.8A32.72,32.72,0,0,0,980,436c-18.2-11.81-42.6-2.7-47.4,18.34C930.58,463.21,930.9,472.58,938,480Z" transform="translate(-862.83 -425.46)" style="fill:#fed81b"/><path d="M987,510a44.37,44.37,0,0,1-8,8.24,79.34,79.34,0,0,0-35.94.92,42.75,42.75,0,0,1-7.87-8.31C952.41,506.62,969.68,507,987,510Z" transform="translate(-862.83 -425.46)" style="fill:#f5a2b3"/><path d="M1029.23,601.92A198.93,198.93,0,0,0,1046,585c-.73,7.35-1.72,14.61-5.09,21.34a39.9,39.9,0,0,0-1.87,5.56Z" transform="translate(-862.83 -425.46)" style="fill:#f497a9"/><path d="M973.6,524.25c-3.56,4.38-7.18,8.72-10.66,13.16-1.63,2.08-2.8,1.69-4.28-.12-3.36-4.11-6.84-8.13-10.26-12.18,6.77-1.84,13.7-1.06,20.58-1.32Z" transform="translate(-862.83 -425.46)" style="fill:#f4a1b2"/><path d="M973.6,524.25c-6.87.27-18.43-1-25.2.86l-5.31-6a79.34,79.34,0,0,1,35.94-.92" transform="translate(-862.83 -425.46)" style="fill:#58585a"/><path d="M888.36,537.31c-3.31-6.29-6-12.7-6.38-19.91-.11-2.14.67-3.53,2.71-4.16,2.36-.72,4.71-1.89,7.25-1,1.08.4.61,1.29.17,2.05C888,521.48,887.19,529.18,888.36,537.31Z" transform="translate(-862.83 -425.46)" style="fill:#f8bacb"/><path d="M908.83,569.2c-3.48-.34-5.35-2.11-5.28-5.18a5,5,0,0,1,10.07.19C913.6,567.3,911.55,568.9,908.83,569.2Z" transform="translate(-862.83 -425.46)" style="fill:#383a3c"/><path d="M866,582.91c-1.24-7.59,1.09-10.3,10.35-13.25C872.76,573.43,868.27,576.45,866,582.91Z" transform="translate(-862.83 -425.46)" style="fill:#f8bacb"/><path d="M938,480c-7.09-7.42-7.41-16.79-5.39-25.64,4.8-21,29.2-30.15,47.4-18.34l1,5c-15-10.61-28.65-9.37-40.18,3.64-7.24,8.15-7.94,23.2-1.53,30.77-2.26-6-3.12-12.16-1.12-18.38s5.49-11.73,11.29-15.23c10.89-6.59,21.54-6.09,31.54,1.27,5,4.72,2.88,10.37,2,15.78-1.82,10.83-12.37,20.78-23.15,23.29C952.08,484,945.11,482.14,938,480Z" transform="translate(-862.83 -425.46)" style="fill:#fecd00"/><path d="M981,441.05l-1-5a32.72,32.72,0,0,1,14,24.13c1.37,12.88-10.73,29.07-23.62,31.8q-20,4.23-32.34-11.95c7.12,2.14,14.09,4,21.81,2.19,10.78-2.51,21.33-12.46,23.15-23.29.92-5.41,3.06-11.06-2-15.78C982.24,442.43,981.08,441.74,981,441.05Z" transform="translate(-862.83 -425.46)" style="fill:#fdbd0e"/><path d="M981,441.05c.09.69,1.25,1.38,0,2.07-10-7.36-20.65-7.86-31.54-1.27-5.8,3.5-9.26,8.9-11.29,15.23s-1.14,12.34,1.12,18.38c-6.41-7.57-5.71-22.62,1.53-30.77C952.34,431.68,966,430.44,981,441.05Z" transform="translate(-862.83 -425.46)" style="fill:#fede57"/></svg>